<svg width="43.129" height="29.481" xmlns="http://www.w3.org/2000/svg">

 <g>
  <title>background</title>
  <rect fill="none" id="canvas_background" height="402" width="582" y="-1" x="-1"/>
 </g>
 <g>
  <title>Layer 1</title>
  <path fill="#ffffff" id="svg_3" d="m0.001,2.545l15.009,13.271a9.911,9.911 0 0 0 13.118,0l15,-13.269l0,-0.215a2.333,2.333 0 0 0 -2.332,-2.332l-38.464,0a2.333,2.333 0 0 0 -2.332,2.332l0,0.213l0.001,0z" class="a"/>
  <path fill="#ffffff" id="svg_4" d="m0.025,27.481l11.364,-11.717l-11.388,-10.072l0,21.457a2.258,2.258 0 0 0 0.024,0.332z" class="a"/>
  <path fill="#ffffff" id="svg_5" d="m31.720007,15.784001l11.381,11.73a2.3,2.3 0 0 0 0.029,-0.368l0,-21.452l-11.41,10.09z" class="a"/>
  <path fill="#ffffff" id="svg_6" d="m41.586,29.343995l-11.636,-11.995l-0.262,0.232a12.254,12.254 0 0 1 -16.243,0l-0.286,-0.253l-11.644,12a2.33,2.33 0 0 0 0.819,0.148l38.464,0a2.319,2.319 0 0 0 0.789,-0.138l-0.001,0.006z" class="a"/>
 </g>
</svg>