<svg xmlns="http://www.w3.org/2000/svg" width="43.129" height="29.481" viewBox="0 0 43.129 29.481"><defs><style>.a{fill:#598cc2;}</style></defs><g transform="translate(0.01)"><g transform="translate(-0.01 0)"><path class="a" d="M-.009,2.545,15,15.816a9.911,9.911,0,0,0,13.118,0l15-13.269V2.332A2.333,2.333,0,0,0,40.786,0H2.322A2.333,2.333,0,0,0-.01,2.332v.213Z" transform="translate(0.01 0)"/><path class="a" d="M.024,74.759,11.388,63.042,0,52.97V74.427A2.258,2.258,0,0,0,.024,74.759Z" transform="translate(0.001 -47.278)"/><path class="a" d="M295.15,63.07,306.531,74.8a2.3,2.3,0,0,0,.029-.368V52.98L295.15,63.07Z" transform="translate(-263.43 -47.286)"/><path class="a" d="M54.161,173.265,42.525,161.27l-.262.232a12.254,12.254,0,0,1-16.243,0l-.286-.253-11.644,12a2.33,2.33,0,0,0,.819.148H53.373a2.319,2.319,0,0,0,.789-.138Z" transform="translate(-12.575 -143.921)"/></g></g></svg>