<?xml version="1.0"?>
<svg xmlns="http://www.w3.org/2000/svg" xmlns:xlink="http://www.w3.org/1999/xlink" xmlns:svgjs="http://svgjs.com/svgjs" version="1.1" width="20" height="20" x="0" y="0" viewBox="0 0 24 24" style="enable-background:new 0 0 512 512" xml:space="preserve"><g><path xmlns="http://www.w3.org/2000/svg" d="m13.75 7h-.75v-2c0-2.757-2.243-5-5-5s-5 2.243-5 5v2h-.75c-1.24 0-2.25 1.01-2.25 2.25v8.5c0 1.24 1.01 2.25 2.25 2.25h9.8c.1-.57.39-1.08.79-1.48-.66-.9-.8-2.14-.23-3.19.77-1.43 1.97-2.53 3.39-3.17v-2.91c0-1.24-1.01-2.25-2.25-2.25zm-8.75-2c0-1.654 1.346-3 3-3s3 1.346 3 3v2h-6z" fill="#94a1c1" data-original="#000000" style=""/><path xmlns="http://www.w3.org/2000/svg" d="m23.226 19.88c-.486-.262-1.092-.082-1.355.403-.574 1.059-1.674 1.717-2.871 1.717-.611 0-1.19-.185-1.696-.494l.476-.476c.214-.214.279-.537.163-.817s-.39-.463-.693-.463h-2.5c-.414 0-.75.336-.75.75v2.5c0 .303.183.577.463.693.093.039.19.057.287.057.195 0 .387-.076.53-.22l.573-.573c.899.671 1.998 1.043 3.147 1.043 1.932 0 3.706-1.059 4.629-2.764.263-.486.083-1.092-.403-1.356z" fill="#94a1c1" data-original="#000000" style=""/><path xmlns="http://www.w3.org/2000/svg" d="m23.537 13.807c-.28-.116-.603-.052-.817.163l-.573.573c-.899-.671-1.998-1.043-3.147-1.043-1.936 0-3.71 1.064-4.631 2.776-.261.487-.079 1.093.407 1.354.151.081.313.119.473.119.356 0 .701-.191.882-.526.571-1.063 1.671-1.723 2.869-1.723.611 0 1.19.185 1.696.494l-.476.476c-.214.214-.279.537-.163.817s.39.463.693.463h2.5c.414 0 .75-.336.75-.75v-2.5c0-.303-.183-.577-.463-.693z" fill="#94a1c1" data-original="#000000" style=""/></g></svg>
