<svg xmlns="http://www.w3.org/2000/svg" width="38.081" height="38.081" viewBox="0 0 38.081 38.081"><defs><style>.a{fill:#fff;}</style></defs><path class="a" d="M26.181,0H11.9A11.9,11.9,0,0,0,0,11.9v14.28a11.9,11.9,0,0,0,11.9,11.9h14.28a11.9,11.9,0,0,0,11.9-11.9V11.9A11.9,11.9,0,0,0,26.181,0Zm8.33,26.181a8.339,8.339,0,0,1-8.33,8.33H11.9a8.339,8.339,0,0,1-8.33-8.33V11.9A8.339,8.339,0,0,1,11.9,3.57h14.28a8.339,8.339,0,0,1,8.33,8.33Z"/><g transform="translate(9.52 9.52)"><path class="a" d="M137.52,128a9.52,9.52,0,1,0,9.52,9.52A9.521,9.521,0,0,0,137.52,128Zm0,15.47a5.95,5.95,0,1,1,5.95-5.95A5.958,5.958,0,0,1,137.52,143.47Z" transform="translate(-128 -128)"/></g><g transform="translate(28.006 7.538)"><circle class="a" cx="1.269" cy="1.269" r="1.269"/></g></svg>