<svg xmlns="http://www.w3.org/2000/svg" width="34.222" height="27.806" viewBox="0 0 34.222 27.806"><defs><style>.a{fill:#fff;}</style></defs><g transform="translate(0 0)"><path class="a" d="M34.222,51.292A14.627,14.627,0,0,1,30.18,52.4a6.976,6.976,0,0,0,3.086-3.878,14.021,14.021,0,0,1-4.449,1.7,7.015,7.015,0,0,0-12.136,4.8,7.224,7.224,0,0,0,.163,1.6A19.858,19.858,0,0,1,2.383,49.279a7.018,7.018,0,0,0,2.156,9.377,6.929,6.929,0,0,1-3.17-.864v.077A7.048,7.048,0,0,0,6.99,64.762a7,7,0,0,1-1.839.231,6.2,6.2,0,0,1-1.328-.12,7.083,7.083,0,0,0,6.556,4.887,14.1,14.1,0,0,1-8.7,2.992A13.14,13.14,0,0,1,0,72.657a19.752,19.752,0,0,0,10.763,3.148c12.91,0,19.969-10.694,19.969-19.964,0-.31-.011-.61-.026-.907A14,14,0,0,0,34.222,51.292Z" transform="translate(0 -48)"/></g></svg>