<svg xmlns="http://www.w3.org/2000/svg" width="37.785" height="26.456" viewBox="0 0 37.785 26.456"><defs><style>.a{fill:#fff;}</style></defs><path class="a" d="M37.007-1.942a4.734,4.734,0,0,0-3.33-3.331c-2.957-.809-14.784-.809-14.784-.809s-11.827,0-14.784.778A4.83,4.83,0,0,0,.779-1.942C0,1.014,0,7.146,0,7.146s0,6.162.778,9.088a4.734,4.734,0,0,0,3.33,3.33c2.988.809,14.784.809,14.784.809s11.827,0,14.784-.778a4.734,4.734,0,0,0,3.331-3.33c.778-2.957.778-9.088.778-9.088s.031-6.163-.778-9.119ZM15.127,12.81V1.481l9.835,5.665Zm0,0" transform="translate(-0.001 6.082)"/></svg>