<svg xmlns="http://www.w3.org/2000/svg" width="16.424" height="16.424" viewBox="0 0 16.424 16.424"><defs><style>.a{fill:#fff;}</style></defs><path class="a" d="M14.306,1.283H12.831V.513a.513.513,0,1,0-1.026,0v.77H4.619V.513a.513.513,0,1,0-1.026,0v.77H2.117A2.119,2.119,0,0,0,0,3.4V14.306a2.119,2.119,0,0,0,2.117,2.117H14.306a2.119,2.119,0,0,0,2.117-2.117V3.4A2.119,2.119,0,0,0,14.306,1.283ZM15.4,14.306A1.091,1.091,0,0,1,14.306,15.4H2.117a1.091,1.091,0,0,1-1.091-1.091v-8.5a.16.16,0,0,1,.16-.16h14.05a.16.16,0,0,1,.16.16Z"/></svg>