<svg xmlns="http://www.w3.org/2000/svg" width="16.004" height="12.015" viewBox="0 0 16.004 12.015"><defs><style>.a{fill:#2af3f3;}</style></defs><g transform="translate(-1 -3.991)"><path class="a" d="M1.5,6.5H5.955a2,2,0,0,0,3.871,0H16.5a.5.5,0,1,0,0-1H9.826a2,2,0,0,0-3.871,0H1.5a.5.5,0,1,0,0,1ZM7.89,4.991A1.006,1.006,0,1,1,6.884,6,1.007,1.007,0,0,1,7.89,4.991Z"/><path class="a" d="M16.5,11.5H15.433a2,2,0,0,0-3.871,0H1.5a.5.5,0,1,0,0,1H11.562a2,2,0,0,0,3.871,0H16.5a.5.5,0,1,0,0-1ZM13.5,13A1.006,1.006,0,1,1,14.5,12,1.007,1.007,0,0,1,13.5,13Z" transform="translate(0 -1.999)"/><path class="a" d="M16.5,17.5H6.814a2,2,0,0,0-3.871,0H1.5a.5.5,0,1,0,0,1H2.943a2,2,0,0,0,3.871,0H16.5a.5.5,0,1,0,0-1ZM4.879,19A1.006,1.006,0,1,1,5.884,18,1.007,1.007,0,0,1,4.879,19Z" transform="translate(0 -3.998)"/></g></svg>