<svg xmlns="http://www.w3.org/2000/svg" width="19.167" height="9.081" viewBox="0 0 19.167 9.081"><defs><style>.a{fill:#fff;}</style></defs><g transform="translate(0 -0.902)"><circle class="a" cx="1.597" cy="1.597" r="1.597" transform="translate(1.597 1.198)"/><path class="a" d="M5.327,13.319a3.347,3.347,0,0,0-1.334,2.675v.2H.6a.6.6,0,0,1-.6-.6v-.4A2.2,2.2,0,0,1,2.2,13h2A2.182,2.182,0,0,1,5.327,13.319Z" transform="translate(0 -7.809)"/><circle class="a" cx="1.597" cy="1.597" r="1.597" transform="translate(14.375 1.198)"/><path class="a" d="M22.657,15.2v.4a.6.6,0,0,1-.6.6H18.664v-.2a3.347,3.347,0,0,0-1.334-2.675A2.182,2.182,0,0,1,18.464,13h2A2.2,2.2,0,0,1,22.657,15.2Z" transform="translate(-3.49 -7.809)"/><circle class="a" cx="2" cy="2" r="2" transform="translate(7.541 0.902)"/><path class="a" d="M13.089,14H8.7a2.2,2.2,0,0,0-2.2,2.2v1.2a.6.6,0,0,0,.6.6h7.587a.6.6,0,0,0,.6-.6V16.2A2.2,2.2,0,0,0,13.089,14Z" transform="translate(-1.309 -8.01)"/></g></svg>