<svg xmlns="http://www.w3.org/2000/svg" width="23.081" height="19.576" viewBox="0 0 23.081 19.576"><defs><style>.a{fill:#fff;}</style></defs><path class="a" d="M28.613,49.069H14.94c-.564,0-1.02-.711-1.02-1.588s.457-1.588,1.02-1.588H28.613c.564,0,1.02.711,1.02,1.588S29.176,49.069,28.613,49.069Z" transform="translate(-6.552 -29.915)"/><path class="a" d="M28.613,30.238H14.94c-.564,0-1.02-.711-1.02-1.588s.457-1.588,1.02-1.588H28.613c.564,0,1.02.711,1.02,1.588S29.176,30.238,28.613,30.238Z" transform="translate(-6.552 -18.862)"/><path class="a" d="M28.613,11.407H14.94c-.564,0-1.02-.711-1.02-1.588s.457-1.588,1.02-1.588H28.613c.564,0,1.02.711,1.02,1.588S29.176,11.407,28.613,11.407Z" transform="translate(-6.552 -7.809)"/><circle class="a" cx="2.133" cy="2.133" r="2.133"/><circle class="a" cx="2.133" cy="2.133" r="2.133" transform="translate(0 7.656)"/><circle class="a" cx="2.133" cy="2.133" r="2.133" transform="translate(0 15.311)"/></svg>