<svg xmlns="http://www.w3.org/2000/svg" width="22.988" height="22.988" viewBox="0 0 22.988 22.988"><defs><style>.a{fill:#fff;}</style></defs><g transform="translate(0)"><g transform="translate(0)"><path class="a" d="M8.749,0H3.294a.682.682,0,0,0-.682.682V6.137a.682.682,0,0,0,.682.682H8.749a.682.682,0,0,0,.682-.682V.682A.682.682,0,0,0,8.749,0Z" transform="translate(-2.612)"/><path class="a" d="M134.137,0h-5.455A.682.682,0,0,0,128,.682V6.137a.682.682,0,0,0,.682.682h5.455a.682.682,0,0,0,.682-.682V.682A.682.682,0,0,0,134.137,0Z" transform="translate(-119.916)"/><path class="a" d="M8.749,125.388H3.294a.682.682,0,0,0-.682.682v5.455a.682.682,0,0,0,.682.682H8.749a.682.682,0,0,0,.682-.682V126.07A.682.682,0,0,0,8.749,125.388Z" transform="translate(-2.612 -117.469)"/><path class="a" d="M134.137,125.388h-5.455a.682.682,0,0,0-.682.682v5.455a.682.682,0,0,0,.682.682h5.455a.682.682,0,0,0,.682-.682V126.07A.682.682,0,0,0,134.137,125.388Z" transform="translate(-119.916 -117.469)"/><path class="a" d="M259.525,0H254.07a.682.682,0,0,0-.682.682V6.137a.682.682,0,0,0,.682.682h5.455a.682.682,0,0,0,.682-.682V.682A.682.682,0,0,0,259.525,0Z" transform="translate(-237.219)"/><path class="a" d="M259.525,125.388H254.07a.682.682,0,0,0-.682.682v5.455a.682.682,0,0,0,.682.682h5.455a.682.682,0,0,0,.682-.682V126.07A.682.682,0,0,0,259.525,125.388Z" transform="translate(-237.219 -117.469)"/><path class="a" d="M8.749,256H3.294a.682.682,0,0,0-.682.682v5.455a.682.682,0,0,0,.682.682H8.749a.682.682,0,0,0,.682-.682v-5.455A.682.682,0,0,0,8.749,256Z" transform="translate(-2.612 -239.831)"/><path class="a" d="M134.137,256h-5.455a.682.682,0,0,0-.682.682v5.455a.682.682,0,0,0,.682.682h5.455a.682.682,0,0,0,.682-.682v-5.455A.682.682,0,0,0,134.137,256Z" transform="translate(-119.916 -239.831)"/><path class="a" d="M259.525,256H254.07a.682.682,0,0,0-.682.682v5.455a.682.682,0,0,0,.682.682h5.455a.682.682,0,0,0,.682-.682v-5.455A.682.682,0,0,0,259.525,256Z" transform="translate(-237.219 -239.831)"/></g></g></svg>