<svg xmlns="http://www.w3.org/2000/svg" width="17.899" height="12.234" viewBox="0 0 17.899 12.234"><defs><style>.a{fill:#fff;}</style></defs><g transform="translate(0.01)"><g transform="translate(-0.01 0)"><path class="a" d="M-.01,1.056,6.218,6.564a4.113,4.113,0,0,0,5.444,0l6.226-5.507V.968A.968.968,0,0,0,16.92,0H.958A.968.968,0,0,0-.01.968v.088Z" transform="translate(0.01 0)"/><path class="a" d="M.01,62.012,4.726,57.15,0,52.97v8.9A.937.937,0,0,0,.01,62.012Z" transform="translate(0 -50.608)"/><path class="a" d="M295.15,57.167l4.723,4.869a.952.952,0,0,0,.012-.153v-8.9l-4.735,4.187Z" transform="translate(-281.986 -50.617)"/><path class="a" d="M30.719,166.236l-4.829-4.978-.109.1a5.085,5.085,0,0,1-6.741,0l-.119-.1-4.832,4.982a.967.967,0,0,0,.34.062H30.393a.963.963,0,0,0,.327-.057Z" transform="translate(-13.461 -154.058)"/></g></g></svg>