<svg xmlns="http://www.w3.org/2000/svg" width="112.979" height="25.583" viewBox="0 0 112.979 25.583"><defs><style>.a{fill:#0964af;}.b{fill:#004f9c;}</style></defs><g transform="translate(0 0)"><path class="a" d="M10.62,237.5.037,253.884a.226.226,0,0,0,.19.349h6.9a.226.226,0,0,0,.19-.1l10.195-15.7a.226.226,0,0,0-.166-.348l-6.513-.689A.226.226,0,0,0,10.62,237.5Z" transform="translate(0 -228.707)"/><path class="a" d="M55.811,204.368a.226.226,0,0,1-.193-.345c.629-1.019,2.469-3.988,2.994-4.669a2.72,2.72,0,0,1,2.265-1.191h9.865a.226.226,0,0,1,.226.226V202.5a.226.226,0,0,0,.434.087,6.3,6.3,0,0,1,1.143-1.945,6.887,6.887,0,0,1,5.07-2.514H98.552a.226.226,0,0,1,.226.226v5.793a.226.226,0,0,1-.226.226H55.811Z" transform="translate(-43.319 -198.102)"/><path class="a" d="M408.572,204.055v-5.8a.226.226,0,0,0-.226-.226H385.929c-3.242.205-5.682,2.192-6.634,5.714a.227.227,0,0,0-.007.058v.248a.226.226,0,0,0,.226.226l28.832,0A.227.227,0,0,0,408.572,204.055Z" transform="translate(-295.592 -198.031)"/><path class="a" d="M262.434,204.383h-5.872a.226.226,0,0,1-.226-.226v-5.763a.226.226,0,0,1,.226-.226h5.872a.226.226,0,0,1,.226.226v5.763A.226.226,0,0,1,262.434,204.383Z" transform="translate(-199.772 -198.138)"/><path class="a" d="M356.536,204.383h-5.867a.226.226,0,0,1-.226-.226v-5.763a.226.226,0,0,1,.226-.226h5.867a.226.226,0,0,1,.226.226v5.763A.226.226,0,0,1,356.536,204.383Z" transform="translate(-273.113 -198.138)"/><path class="a" d="M283.429,239.5l-5.761-.341a.226.226,0,0,0-.24.226v6.971a2.041,2.041,0,0,1-2.048,2.077H264.69a1.98,1.98,0,0,1-1.8-2.057v-8a.226.226,0,0,0-.21-.226l-5.823-.416a.226.226,0,0,0-.242.226v10.791a.259.259,0,0,0,0,.047,6.813,6.813,0,0,0,5.85,5.69s.465.031.566.04h14.44c.282-.026,6.162-.632,6.162-6.353v-8.449A.226.226,0,0,0,283.429,239.5Z" transform="translate(-199.993 -228.971)"/><path class="a" d="M96.433,257.844h29.331a.238.238,0,0,0,.048,0,6.886,6.886,0,0,0,5.666-5.647,9.275,9.275,0,0,0,.1-2.478c0-.006,0-.011,0-.017-.163-.942-1.946-5.015-5.8-5.37-2.141-.2-19.986-1.6-22.526-1.8a.225.225,0,0,0-.237.273,6.333,6.333,0,0,0,1.873,3.353,8.034,8.034,0,0,0,3.682,1.736l.018,0c.667.061,15.807,1.3,15.807,1.3.486.025,1.408.147,1.4,1.341a1.243,1.243,0,0,1-1.305,1.2h-21.9a.226.226,0,0,1-.226-.226v-8.841a.226.226,0,0,0-.21-.226l-5.7-.413a.226.226,0,0,0-.243.226v15.37A.226.226,0,0,0,96.433,257.844Z" transform="translate(-74.978 -232.315)"/><path class="a" d="M379.3,254.976a.226.226,0,0,1,.226-.226h21.75a2.359,2.359,0,0,0,1.078-.32,1.339,1.339,0,0,0,.388-.912c0-1.191-.992-1.243-1.49-1.268,0,0-15.316-1.265-15.97-1.317l-.017,0a7.447,7.447,0,0,1-3.558-1.685,5.948,5.948,0,0,1-1.955-3,.227.227,0,0,1,.228-.3c2.638.154,20.483,1.2,22.6,1.4,3.872.367,5.685,4.157,5.849,5.419a9.842,9.842,0,0,1-.035,2.54,6.847,6.847,0,0,1-6.471,5.653H379.516a.226.226,0,0,1-.226-.227Z" transform="translate(-295.595 -235.375)"/></g><g transform="translate(0 0)"><path class="b" d="M4.591,253.883,14.959,237.83l-4.125-.437a.227.227,0,0,0-.214.1L.037,253.883a.226.226,0,0,0,.19.349H4.781A.226.226,0,0,1,4.591,253.883Z" transform="translate(0 -228.706)"/><path class="b" d="M383.842,204.025a.231.231,0,0,1,.007-.06c1-3.838,3.562-5.732,6.634-5.934H385.93c-3.241.205-5.682,2.192-6.634,5.714a.224.224,0,0,0-.008.058v.248a.226.226,0,0,0,.226.226h4.328Z" transform="translate(-295.593 -198.03)"/><path class="b" d="M260.891,204.156v-5.763a.226.226,0,0,1,.226-.226h-4.554a.226.226,0,0,0-.226.226v5.763a.226.226,0,0,0,.226.226h4.554A.226.226,0,0,1,260.891,204.156Z" transform="translate(-199.773 -198.137)"/><path class="b" d="M355,204.156v-5.763a.226.226,0,0,1,.226-.226h-4.554a.226.226,0,0,0-.226.226v5.763a.226.226,0,0,0,.226.226h4.554A.226.226,0,0,1,355,204.156Z" transform="translate(-273.112 -198.137)"/><path class="b" d="M348.244,251.384v-6.942l-4.315-.255a.226.226,0,0,0-.24.226v6.971a2.042,2.042,0,0,1-2.048,2.077H346.2A2.041,2.041,0,0,0,348.244,251.384Z" transform="translate(-266.254 -234.001)"/><path class="b" d="M267.029,254.486a6.813,6.813,0,0,1-5.85-5.69.259.259,0,0,1,0-.047V238.04l-4.312-.308a.226.226,0,0,0-.242.226v10.791a.259.259,0,0,0,0,.047,6.813,6.813,0,0,0,5.85,5.69s.465.031.566.04H267.6C267.495,254.517,267.029,254.486,267.029,254.486Z" transform="translate(-199.994 -228.971)"/><path class="b" d="M100.761,257.617V242.334l-4.312-.312a.226.226,0,0,0-.243.226v15.37a.226.226,0,0,0,.226.226h4.554A.227.227,0,0,1,100.761,257.617Z" transform="translate(-74.978 -232.314)"/><path class="b" d="M383.844,291.817l.013-5.756a.226.226,0,0,1,.226-.226h-4.554a.226.226,0,0,0-.226.226l-.013,5.756a.226.226,0,0,0,.226.227h4.554A.226.226,0,0,1,383.844,291.817Z" transform="translate(-295.595 -266.46)"/><path class="b" d="M131.966,198.031h-.018a7.677,7.677,0,0,0-2.093.409v.023a7.34,7.34,0,0,0-2.977,2.1,6.3,6.3,0,0,0-1.143,1.945.226.226,0,0,1-.434-.087l0,1.872h4.9a4.9,4.9,0,0,1,.944-3.41,3.47,3.47,0,0,1,.284-.341,6.887,6.887,0,0,1,5.07-2.514h-4.537Z" transform="translate(-97.652 -198.031)"/><path class="b" d="M58.611,199.406c-.525.682-2.365,3.65-2.994,4.669a.226.226,0,0,0,.193.345h4.554a.226.226,0,0,1-.193-.345c.629-1.019,2.469-3.988,2.994-4.669a2.72,2.72,0,0,1,2.265-1.191H60.876A2.72,2.72,0,0,0,58.611,199.406Z" transform="translate(-43.318 -198.174)"/><path class="b" d="M128.9,247.928a8.037,8.037,0,0,0,3.682,1.736l.018,0c.23.021,2.178.182,4.633.384-4.275-1.968-4.983-5.355-4.983-5.355h0l-4.986-.393a.224.224,0,0,0-.237.273A6.336,6.336,0,0,0,128.9,247.928Z" transform="translate(-98.996 -234.091)"/><path class="b" d="M383.308,249.245a7.447,7.447,0,0,0,3.558,1.685l.017,0,3.669.3a8.609,8.609,0,0,1-4.442-5.02h0l-4.529-.267a.227.227,0,0,0-.228.3A5.949,5.949,0,0,0,383.308,249.245Z" transform="translate(-297.194 -235.374)"/></g></svg>