<svg xmlns="http://www.w3.org/2000/svg" width="93.983" height="93.984" viewBox="0 0 93.983 93.984"><defs><style>.a{fill:#579add;}.b{fill:#4987ce;}</style></defs><path class="a" d="M381.5,213.233h7.018v5.913H374.438V198.928h7.06Z" transform="translate(-305.706 -162.412)"/><rect class="b" width="3.782" height="20.217" transform="translate(68.732 36.516)"/><g transform="translate(0)"><path class="a" d="M113.269,203.937V190.171a.266.266,0,0,0-.266-.266h-6.522a.266.266,0,0,0-.266.266v6.618a.266.266,0,0,1-.1.209l-9.465,7.432a.266.266,0,0,1-.329,0L94.885,203.3a.266.266,0,0,1,0-.419l9.188-7.223a.266.266,0,0,0,0-.419l-3.5-2.754a.266.266,0,0,0-.329,0l-9.392,7.386a.266.266,0,0,1-.329,0l-1.43-1.126a.266.266,0,0,1,0-.418l9.187-7.225a.266.266,0,0,0,0-.419l-3.5-2.754a.266.266,0,0,0-.329,0l-10.176,8a.265.265,0,0,1-.406-.1,10.151,10.151,0,0,0-9.346-5.928h-8.8a.266.266,0,0,0-.266.266v19.68a.266.266,0,0,0,.266.266h8.8a10.25,10.25,0,0,0,9.348-5.932.265.265,0,0,1,.4-.095l10.175,8a.266.266,0,0,0,.329,0l11.009-8.66a.266.266,0,0,1,.431.209v6.214a.266.266,0,0,0,.266.266h13.545a.266.266,0,0,0,.266-.266v-5.388a.266.266,0,0,0-.266-.266h-6.491A.266.266,0,0,1,113.269,203.937Zm-39.5.373H72.5a.266.266,0,0,1-.266-.266v-8.067a.266.266,0,0,1,.266-.266h1.308a4.045,4.045,0,0,1,4.381,4.3C78.195,203,76.156,204.31,73.772,204.31Z" transform="translate(-53.436 -153.389)"/><path class="a" d="M46.993,0A46.992,46.992,0,1,0,93.986,46.99,46.991,46.991,0,0,0,46.993,0m0,88.9A41.908,41.908,0,1,1,88.9,46.989,41.907,41.907,0,0,1,46.993,88.9" transform="translate(-0.003)"/></g><g transform="translate(0)"><path class="b" d="M69.232,218.875V199.2a.266.266,0,0,1,.266-.266H65.716a.266.266,0,0,0-.266.266v19.68a.266.266,0,0,0,.266.266H69.5A.266.266,0,0,1,69.232,218.875Z" transform="translate(-53.436 -162.413)"/><path class="b" d="M3.785,46.99A46.99,46.99,0,0,1,48.884.041C48.256.016,47.627,0,46.993,0a46.992,46.992,0,0,0,0,93.984c.634,0,1.264-.016,1.891-.041A46.992,46.992,0,0,1,3.785,46.99Z" transform="translate(-0.003 0)"/><path class="b" d="M177.892,211.136l.509-.4c-8.137-6.4-6.229-4.891-9.459-7.465a.9.9,0,0,1-.328-.878,12.688,12.688,0,0,0,.038-4.8.91.91,0,0,1,.327-.884c3.751-2.967,1.809-1.437,9.421-7.42l-.623-.49-1.1-.867a.266.266,0,0,0-.329,0l-10.176,8a.265.265,0,0,1-.406-.1,12.173,12.173,0,0,1,0,8.353.265.265,0,0,1,.4-.095l.9.705h0l9.278,7.3a.266.266,0,0,0,.329,0Z" transform="translate(-135.336 -153.389)"/><path class="b" d="M207.5,220.218l7.763-6.089-1.727-1.358a.263.263,0,0,0-.208-.05l-9.513,7.436.014.011A2.95,2.95,0,0,0,207.5,220.218Z" transform="translate(-166.405 -173.671)"/><path class="b" d="M248.748,218.879V199.194a.266.266,0,0,1,.266-.266h-3.782a.266.266,0,0,0-.266.266v6.782l-9.56,7.478h0a2.769,2.769,0,0,0,3.6.149l5.481-4.313a.3.3,0,0,1,.481.234v9.357a.266.266,0,0,0,.266.266h3.782A.266.266,0,0,1,248.748,218.879Z" transform="translate(-192.195 -162.412)"/></g></svg>