<svg xmlns="http://www.w3.org/2000/svg" width="93.984" height="93.984" viewBox="0 0 93.984 93.984"><defs><style>.a{fill:#579add;}.b{fill:#4987ce;}</style></defs><path class="a" d="M46.993,0q-.73,0-1.454.024a.976.976,0,0,0-.883.644L35.746,25.155a.98.98,0,0,0,.921,1.314H43.64c4.981,0,7.665,3.833,5.96,8.519L37.978,66.927a.98.98,0,0,1-.921.645h-7.87a.98.98,0,0,1-.92-1.315l11.765-32.3a.98.98,0,0,0-.92-1.315h-5.4a.979.979,0,0,0-.92.644L20.537,66.925a.98.98,0,0,1-.92.644H11.742a.98.98,0,0,1-.92-1.315h0L33.636,3.576a.981.981,0,0,0-1.228-1.267,47.006,47.006,0,0,0,2.806,90.183.983.983,0,0,0,1.172-.613h0L59.961,27.114h0a.98.98,0,0,1,.921-.644h17.65c4.986,0,7.669,3.833,5.965,8.519L74.076,63.607a6.479,6.479,0,0,1-5.66,3.962H55.886a.98.98,0,0,0-.921.645l-8.9,24.456a.978.978,0,0,0,.912,1.314h.014A46.992,46.992,0,0,0,46.993,0Z" transform="translate(-0.001)"/><g transform="translate(0)"><path class="b" d="M208.493,144.2c4.981,0,7.665,3.833,5.96,8.519l-11.622,31.939a.979.979,0,0,1-.912.644h3.774a.98.98,0,0,0,.921-.645l11.622-31.939c1.706-4.685-.978-8.519-5.96-8.519Z" transform="translate(-164.854 -117.729)"/><path class="b" d="M382.152,181.336l10.419-28.619c1.7-4.685-.979-8.519-5.965-8.519h-3.782c4.986,0,7.669,3.833,5.965,8.519L378.37,181.336a6.479,6.479,0,0,1-5.66,3.962h3.782A6.479,6.479,0,0,0,382.152,181.336Z" transform="translate(-304.295 -117.729)"/><path class="b" d="M111.585,212.123l12.253-33.636a.98.98,0,0,1,.92-.644h-3.782a.979.979,0,0,0-.92.644L107.8,212.123a.979.979,0,0,1-.916.644h3.778A.98.98,0,0,0,111.585,212.123Z" transform="translate(-87.267 -145.198)"/><path class="b" d="M254.471,393.2l8.9-24.456a.979.979,0,0,1,.921-.645h-3.782a.98.98,0,0,0-.921.645l-8.9,24.456a.978.978,0,0,0,.912,1.314h.014c1.112,0,2.214-.042,3.306-.117A.983.983,0,0,1,254.471,393.2Z" transform="translate(-204.623 -300.528)"/><path class="b" d="M3.783,57.042A47.006,47.006,0,0,1,33.694,13.254a.982.982,0,0,0-1.286-.895,47.005,47.005,0,0,0,2.805,90.183.983.983,0,0,0,1.172-.613l.047-.13A47.008,47.008,0,0,1,3.783,57.042Z" transform="translate(-0.001 -10.049)"/><path class="b" d="M195.386,26.469h3.782a.98.98,0,0,1-.921-1.314L207.157.668a.978.978,0,0,1,.7-.618C207.144.019,206.43,0,205.712,0q-.73,0-1.454.024a.976.976,0,0,0-.883.644l-8.909,24.487A.98.98,0,0,0,195.386,26.469Z" transform="translate(-158.72 0)"/></g><path class="a" d="M325.153,178.351l-9.765,26.793a.98.98,0,0,0,.92,1.315h5.4a.98.98,0,0,0,.92-.644l9.765-26.793a.98.98,0,0,0-.92-1.315h-5.4A.979.979,0,0,0,325.153,178.351Z" transform="translate(-257.446 -145.087)"/><path class="b" d="M319.174,205.144l9.765-26.793a.98.98,0,0,1,.92-.644h-3.786a.98.98,0,0,0-.92.644l-9.765,26.793a.98.98,0,0,0,.92,1.315h3.786A.98.98,0,0,1,319.174,205.144Z" transform="translate(-257.446 -145.087)"/></svg>