<svg xmlns="http://www.w3.org/2000/svg" width="140.404" height="28.98" viewBox="0 0 140.404 28.98"><defs><style>.a{fill:#579add;}.b{fill:#4987ce;}</style></defs><path class="a" d="M179.588,225.828c5.32,0,8.943,3.675,8.943,8.739v13.038a.612.612,0,0,1-.612.612H183.1a.612.612,0,0,1-.612-.612V235.688a4.85,4.85,0,0,0-5.091-4.652,4.719,4.719,0,0,0-4.986,4.652v11.918a.612.612,0,0,1-.612.612h-4.822a.612.612,0,0,1-.612-.612v-20.8a.612.612,0,0,1,.612-.612H171.8a.612.612,0,0,1,.612.612v2.543h0v0a9.15,9.15,0,0,1,7.18-3.528" transform="translate(-120.741 -219.612)"/><g transform="translate(45.621 6.586)"><path class="b" d="M218.816,261.388V249.47a4.85,4.85,0,0,0-5.091-4.652,5.728,5.728,0,0,0-1.586.217,4.623,4.623,0,0,1,3.569,4.435v11.918a.612.612,0,0,0,.612.612h3.108A.612.612,0,0,1,218.816,261.388Z" transform="translate(-199.586 -239.98)"/><path class="b" d="M169.47,248.584v-20.8a.612.612,0,0,1,.612-.612h-3.108a.612.612,0,0,0-.612.612v20.8a.612.612,0,0,0,.612.612h3.108A.612.612,0,0,1,169.47,248.584Z" transform="translate(-166.362 -227.176)"/></g><path class="a" d="M357.931,227.179H363.5a.612.612,0,0,1,.566.845L355.5,248.813a.612.612,0,0,1-.566.379h-5.806a.612.612,0,0,1-.566-.379l-8.556-20.789a.612.612,0,0,1,.566-.845h5.566a.612.612,0,0,1,.575.4l4.745,13.02a.612.612,0,0,0,1.149,0l4.745-13.02A.611.611,0,0,1,357.931,227.179Z" transform="translate(-246.737 -220.593)"/><path class="b" d="M351.674,248.813l-8.556-20.789a.612.612,0,0,1,.566-.845h-3.108a.612.612,0,0,0-.566.845l8.556,20.789a.612.612,0,0,0,.566.379h3.108A.612.612,0,0,1,351.674,248.813Z" transform="translate(-246.736 -220.593)"/><path class="a" d="M97.493,235.1a11.767,11.767,0,0,0-2.565-5.671,11.047,11.047,0,0,0-8.7-3.607,11.279,11.279,0,0,0-11.662,11.383c0,6.646,5.025,11.382,12.328,11.382a14.92,14.92,0,0,0,9.742-3.688.614.614,0,0,0-.047-.931l-2.923-2.247a.611.611,0,0,0-.727-.013,8.892,8.892,0,0,1-5.955,2.068,7.141,7.141,0,0,1-4.039-1.1.613.613,0,0,1,.108-1.074l14.068-5.836A.608.608,0,0,0,97.493,235.1ZM90.4,233.975l-9.162,3.8a.614.614,0,0,1-.848-.549,6.851,6.851,0,0,1,1.3-4.4,5.625,5.625,0,0,1,4.651-2.194,4.981,4.981,0,0,1,4.343,2.443A.616.616,0,0,1,90.4,233.975Z" transform="translate(-54.119 -219.609)"/><path class="b" d="M77.676,237.207A11.2,11.2,0,0,1,87.84,225.912a14.926,14.926,0,0,0-1.61-.088,11.279,11.279,0,0,0-11.662,11.383c0,6.646,5.025,11.382,12.328,11.382a13.7,13.7,0,0,0,1.486-.084C81.969,247.855,77.676,243.349,77.676,237.207Z" transform="translate(-54.119 -219.609)"/><path class="a" d="M19.872,226.826v4.329a.612.612,0,0,1-.612.612H.612A.612.612,0,0,1,0,231.155V203.773a.612.612,0,0,1,.612-.612H5.517a.612.612,0,0,1,.612.612V225.6a.612.612,0,0,0,.612.612h12.52A.611.611,0,0,1,19.872,226.826Z" transform="translate(0 -203.161)"/><path class="b" d="M3.108,231.155V203.773a.612.612,0,0,1,.612-.612H.612a.612.612,0,0,0-.612.612v27.382a.612.612,0,0,0,.612.612H3.72A.612.612,0,0,1,3.108,231.155Z" transform="translate(0 -203.161)"/><path class="a" d="M437.565,225.824c-6.658,0-11.875,5-11.875,11.381,0,6.454,5.182,11.381,11.794,11.381,6.658,0,11.874-5,11.874-11.381C449.359,230.751,444.178,225.824,437.565,225.824Zm0,17.58a6,6,0,0,1-5.91-6.2c0-3.64,2.452-6.2,5.829-6.2a6,6,0,0,1,5.91,6.2C443.394,240.775,440.943,243.4,437.565,243.4Z" transform="translate(-308.954 -219.609)"/><g transform="translate(116.736 6.215)"><path class="b" d="M474.389,256.907a5.816,5.816,0,0,0,1.533.21c3.378,0,5.829-2.63,5.829-6.2a6,6,0,0,0-5.91-6.2,6.166,6.166,0,0,0-1.583.208,6.073,6.073,0,0,1,4.385,5.991A5.918,5.918,0,0,1,474.389,256.907Z" transform="translate(-460.939 -239.537)"/><path class="b" d="M428.8,237.205A11.415,11.415,0,0,1,439.12,225.92a12.983,12.983,0,0,0-1.554-.1c-6.658,0-11.875,5-11.875,11.381,0,6.454,5.182,11.381,11.794,11.381a12.982,12.982,0,0,0,1.553-.1A11.33,11.33,0,0,1,428.8,237.205Z" transform="translate(-425.69 -225.824)"/></g><path class="a" d="M267.8,225.824c-6.66,0-11.875,5-11.875,11.381,0,6.454,5.18,11.381,11.793,11.381,6.658,0,11.875-5,11.875-11.381C279.6,230.751,274.416,225.824,267.8,225.824Zm0,17.58a6,6,0,0,1-5.91-6.2c0-3.64,2.451-6.2,5.828-6.2a6,6,0,0,1,5.91,6.2C273.632,240.775,271.181,243.4,267.8,243.4Z" transform="translate(-185.747 -219.609)"/><g transform="translate(70.183 6.215)"><path class="b" d="M259.037,237.205a11.414,11.414,0,0,1,10.322-11.285,12.98,12.98,0,0,0-1.554-.1c-6.659,0-11.875,5-11.875,11.381,0,6.454,5.18,11.381,11.793,11.381a12.984,12.984,0,0,0,1.553-.1A11.329,11.329,0,0,1,259.037,237.205Z" transform="translate(-255.929 -225.824)"/><path class="b" d="M304.626,256.907a5.82,5.82,0,0,0,1.534.21c3.377,0,5.828-2.63,5.828-6.2a6,6,0,0,0-5.91-6.2,6.161,6.161,0,0,0-1.583.208C310.319,246.5,310.311,255.378,304.626,256.907Z" transform="translate(-291.177 -239.537)"/></g></svg>